<svg width="131" height="131" viewBox="0 0 131 131" fill="none" xmlns="http://www.w3.org/2000/svg">
<circle cx="65.5" cy="65.5" r="65.5" fill="#6A3710"/>
<g clip-path="url(#clip0_84_2331)">
<path d="M107.835 49.9409C105.086 45.3678 101.014 42.0964 96.4613 40.1353C91.938 38.1741 85.7411 37.1957 77.0359 37.1957H51.637V38.774C51.637 38.774 55.1275 38.842 55.7725 39.127C58.7108 40.4203 60.553 43.6449 61.101 46.8312C61.4172 48.6647 61.6996 50.7577 61.6996 52.3615V84.7647C61.6996 85.8878 61.6954 92.388 61.6912 94.4002C61.6912 94.7277 61.961 94.9958 62.2898 94.9958H79.3503C84.7041 94.9958 89.4213 94.2726 93.502 92.8219C97.5827 91.3713 100.989 89.3634 103.725 86.7897C106.461 84.2202 108.522 81.1402 109.909 77.5626C111.296 73.9806 111.992 70.0584 111.992 65.7958C111.992 59.7721 110.6 54.4842 107.827 49.9409H107.835ZM95.8922 76.6947C94.7161 79.8768 93.6664 82.9823 91.605 85.2156C89.5436 87.4448 85.4797 92.3072 77.0612 92.3072V40.6585C79.8983 40.867 80.6655 41.0371 83.5448 42.2283C86.424 43.4237 88.8986 45.1338 90.9769 47.3629C93.0509 49.5921 94.6697 52.3019 95.829 55.4839C96.9883 58.666 97.57 62.2479 97.57 66.2255C97.57 70.203 97.0684 73.5127 95.8922 76.6947Z" fill="#EDD8C1"/>
<path d="M38.358 37.1192C32.2369 36.7363 25.7365 37.4255 19.5775 37.1192C19.4047 37.0809 19 37.2426 19 37.383V52.7699C19 53.089 20.5345 53.1996 20.8591 52.7869C21.1204 52.4509 21.2638 50.5961 21.4282 49.9793C22.8067 44.8574 28.4387 38.8208 33.9948 38.8208H37.0933L37.0849 79.3238C37.7804 88.0574 42.6663 94.5747 51.7593 94.9618C52.2525 94.9831 52.5308 94.9405 52.5139 94.3705V53.7739C52.0291 44.968 47.7545 37.7063 38.358 37.1192Z" fill="#EDD8C1"/>
</g>
<defs>
<clipPath id="clip0_84_2331">
<rect width="93" height="58" fill="white" transform="translate(19 37)"/>
</clipPath>
</defs>
</svg>
