<svg width="52" height="32" viewBox="0 0 52 32" fill="none" xmlns="http://www.w3.org/2000/svg">
<g clip-path="url(#clip0_26_32)">
<path d="M49.6712 7.1398C48.1343 4.61669 45.8574 2.81179 43.3117 1.72979C40.7825 0.647792 37.3176 0.107965 32.4502 0.107965H18.2487V0.97873C18.2487 0.97873 20.2003 1.01628 20.561 1.17354C22.2039 1.88705 23.2339 3.66613 23.5403 5.42409C23.7171 6.43568 23.8751 7.59044 23.8751 8.47528V26.3529C23.8751 26.9726 23.8727 30.5589 23.8703 31.6691C23.8703 31.8498 24.0212 31.9977 24.2051 31.9977H33.7442C36.7378 31.9977 39.3754 31.5987 41.657 30.7983C43.9387 29.9979 45.8432 28.8901 47.373 27.4702C48.9028 26.0525 50.0554 24.3532 50.8309 22.3793C51.6063 20.4031 51.9953 18.2391 51.9953 15.8873C51.9953 12.5639 51.2174 9.64647 49.6665 7.1398H49.6712ZM42.9935 21.9005C42.3359 23.6562 41.749 25.3695 40.5963 26.6017C39.4437 27.8316 37.1715 30.5143 32.4643 30.5143V2.01848C34.0507 2.13349 34.4797 2.22737 36.0896 2.88455C37.6995 3.54408 39.0831 4.48761 40.2451 5.71747C41.4048 6.94734 42.3099 8.44242 42.9581 10.198C43.6063 11.9536 43.9316 13.9299 43.9316 16.1244C43.9316 18.3189 43.6511 20.1449 42.9935 21.9005Z" fill="#6A3710"/>
<path d="M10.8238 0.0657673C7.4013 -0.145469 3.76665 0.234757 0.322923 0.0657673C0.226282 0.0446437 0 0.133832 0 0.211286V8.70065C0 8.87668 0.857985 8.93771 1.03948 8.71004C1.18562 8.52462 1.26576 7.5013 1.35769 7.16097C2.12846 4.33509 5.27755 1.0046 8.38421 1.0046H10.1167L10.112 23.3511C10.5009 28.1696 13.2328 31.7653 18.317 31.9789C18.5928 31.9907 18.7484 31.9672 18.739 31.6527V9.25456C18.4679 4.39612 16.0778 0.389663 10.8238 0.0657673Z" fill="#6A3710"/>
</g>
<defs>
<clipPath id="clip0_26_32">
<rect width="52" height="32" fill="white"/>
</clipPath>
</defs>
</svg>
