<svg width="93" height="58" viewBox="0 0 93 58" fill="none" xmlns="http://www.w3.org/2000/svg">
<g clip-path="url(#clip0_84_2314)">
<path d="M88.835 12.9409C86.0864 8.36777 82.0142 5.09638 77.4613 3.13526C72.938 1.17413 66.7411 0.195694 58.0359 0.195694H32.637V1.77395C32.637 1.77395 36.1275 1.84202 36.7725 2.12704C39.7108 3.42028 41.553 6.64487 42.101 9.83117C42.4172 11.6647 42.6996 13.7577 42.6996 15.3615V47.7647C42.6996 48.8878 42.6954 55.388 42.6912 57.4002C42.6912 57.7277 42.961 57.9958 43.2898 57.9958H60.3503C65.7041 57.9958 70.4213 57.2726 74.502 55.8219C78.5827 54.3713 81.9889 52.3634 84.7248 49.7897C87.4607 47.2202 89.5221 44.1402 90.909 40.5626C92.296 36.9806 92.9915 33.0584 92.9915 28.7958C92.9915 22.7721 91.6004 17.4842 88.8265 12.9409H88.835ZM76.8922 39.6947C75.7161 42.8768 74.6664 45.9823 72.605 48.2156C70.5436 50.4448 66.4797 55.3072 58.0612 55.3072V3.65851C60.8983 3.86696 61.6655 4.03712 64.5448 5.22826C67.424 6.42365 69.8986 8.13379 71.9769 10.3629C74.0509 12.5921 75.6697 15.3019 76.829 18.4839C77.9883 21.666 78.57 25.2479 78.57 29.2255C78.57 33.203 78.0684 36.5127 76.8922 39.6947Z" fill="#EDD8C1"/>
<path d="M19.358 0.119203C13.2369 -0.263663 6.7365 0.425496 0.577535 0.119203C0.404696 0.0809167 0 0.242571 0 0.382956V15.7699C0 16.089 1.53447 16.1996 1.85907 15.7869C2.12044 15.4509 2.26377 13.5961 2.42818 12.9793C3.80667 7.85736 9.43869 1.82083 14.9948 1.82083H18.0933L18.0849 42.3238C18.7804 51.0574 23.6663 57.5747 32.7593 57.9618C33.2525 57.9831 33.5308 57.9405 33.5139 57.3705V16.7739C33.0291 7.96796 28.7545 0.706265 19.358 0.119203Z" fill="#EDD8C1"/>
</g>
<defs>
<clipPath id="clip0_84_2314">
<rect width="93" height="58" fill="white"/>
</clipPath>
</defs>
</svg>
